<svg id="visual" viewBox="0 0 900 450" width="900" height="450" xmlns="http://www.w3.org/2000/svg" xmlns:xlink="http://www.w3.org/1999/xlink" version="1.1"><rect width="900" height="450" fill="#FF6154"></rect><g><g transform="translate(315 336)"><path d="M0 -42.1L42.1 0L0 42.1L-42.1 0Z" fill="none" stroke="#ffffff" stroke-width="2"></path></g><g transform="translate(380 105)"><path d="M0 -17L17 0L0 17L-17 0Z" fill="none" stroke="#ffffff" stroke-width="2"></path></g><g transform="translate(465 289)"><path d="M0 -6L6 0L0 6L-6 0Z" fill="none" stroke="#ffffff" stroke-width="2"></path></g><g transform="translate(761 449)"><path d="M0 -39L39 0L0 39L-39 0Z" stroke="#ffffff" fill="none" stroke-width="2"></path></g><g transform="translate(774 65)"><path d="M0 -19L19 0L0 19L-19 0Z" stroke="#ffffff" fill="none" stroke-width="2"></path></g><g transform="translate(6 273)"><path d="M0 -29L29 0L0 29L-29 0Z" stroke="#ffffff" fill="none" stroke-width="2"></path></g><g transform="translate(558 122)"><path d="M0 -7L7 0L0 7L-7 0Z" stroke="#ffffff" fill="none" stroke-width="2"></path></g><g transform="translate(190 288)"><path d="M0 -33L33 0L0 33L-33 0Z" stroke="#ffffff" fill="none" stroke-width="2"></path></g><g transform="translate(96 22)"><path d="M0 -16L16 0L0 16L-16 0Z" stroke="#ffffff" fill="none" stroke-width="2"></path></g><g transform="translate(487 181)"><path d="M0 -11L11 0L0 11L-11 0Z" stroke="#ffffff" fill="none" stroke-width="2"></path></g><g transform="translate(456 2)"><path d="M0 -6L6 0L0 6L-6 0Z" stroke="#ffffff" fill="none" stroke-width="2"></path></g><g transform="translate(626 180)"><path d="M0 -9L9 0L0 9L-9 0Z" stroke="#ffffff" fill="none" stroke-width="2"></path></g><g transform="translate(161 377)"><path d="M0 -6L6 0L0 6L-6 0Z" stroke="#ffffff" fill="none" stroke-width="2"></path></g><g transform="translate(262 21)"><path d="M0 -15L15 0L0 15L-15 0Z" stroke="#ffffff" fill="none" stroke-width="2"></path></g><g transform="translate(759 354)"><path d="M0 -39L39 0L0 39L-39 0Z" stroke="#ffffff" fill="none" stroke-width="2"></path></g><g transform="translate(855 9)"><path d="M0 -22L22 0L0 22L-22 0Z" stroke="#ffffff" fill="none" stroke-width="2"></path></g><g transform="translate(489 437)"><path d="M0 -39L39 0L0 39L-39 0Z" stroke="#ffffff" fill="none" stroke-width="2"></path></g><g transform="translate(379 405)"><path d="M0 -18L18 0L0 18L-18 0Z" stroke="#ffffff" fill="none" stroke-width="2"></path></g><g transform="translate(30 109)"><path d="M0 -40L40 0L0 40L-40 0Z" stroke="#ffffff" fill="none" stroke-width="2"></path></g><g transform="translate(851 355)"><path d="M0 -28L28 0L0 28L-28 0Z" stroke="#ffffff" fill="none" stroke-width="2"></path></g><g transform="translate(603 408)"><path d="M0 -36L36 0L0 36L-36 0Z" stroke="#ffffff" fill="none" stroke-width="2"></path></g><g transform="translate(592 8)"><path d="M0 -23L23 0L0 23L-23 0Z" stroke="#ffffff" fill="none" stroke-width="2"></path></g><g transform="translate(255 140)"><path d="M0 -28L28 0L0 28L-28 0Z" stroke="#ffffff" fill="none" stroke-width="2"></path></g><g transform="translate(892 229)"><path d="M0 -39L39 0L0 39L-39 0Z" stroke="#ffffff" fill="none" stroke-width="2"></path></g><g transform="translate(751 212)"><path d="M0 -28L28 0L0 28L-28 0Z" stroke="#ffffff" fill="none" stroke-width="2"></path></g><g transform="translate(147 188)"><path d="M0 -33L33 0L0 33L-33 0Z" stroke="#ffffff" fill="none" stroke-width="2"></path></g><g transform="translate(702 141)"><path d="M0 -12L12 0L0 12L-12 0Z" stroke="#ffffff" fill="none" stroke-width="2"></path></g><g transform="translate(176 94)"><path d="M0 -28L28 0L0 28L-28 0Z" stroke="#ffffff" fill="none" stroke-width="2"></path></g><g transform="translate(684 284)"><path d="M0 -16L16 0L0 16L-16 0Z" stroke="#ffffff" fill="none" stroke-width="2"></path></g><g transform="translate(19 395)"><path d="M0 -18L18 0L0 18L-18 0Z" stroke="#ffffff" fill="none" stroke-width="2"></path></g><g transform="translate(691 11)"><path d="M0 -18L18 0L0 18L-18 0Z" stroke="#ffffff" fill="none" stroke-width="2"></path></g><g transform="translate(591 279)"><path d="M0 -17L17 0L0 17L-17 0Z" stroke="#ffffff" fill="none" stroke-width="2"></path></g><g transform="translate(272 445)"><path d="M0 -18L18 0L0 18L-18 0Z" stroke="#ffffff" fill="none" stroke-width="2"></path></g><g transform="translate(321 237)"><path d="M0 -31L31 0L0 31L-31 0Z" stroke="#ffffff" fill="none" stroke-width="2"></path></g><g transform="translate(95 281)"><path d="M0 -16L16 0L0 16L-16 0Z" stroke="#ffffff" fill="none" stroke-width="2"></path></g><g transform="translate(871 122)"><path d="M0 -16L16 0L0 16L-16 0Z" stroke="#ffffff" fill="none" stroke-width="2"></path></g><g transform="translate(535 353)"><path d="M0 -22L22 0L0 22L-22 0Z" stroke="#ffffff" fill="none" stroke-width="2"></path></g><g transform="translate(863 441)"><path d="M0 -40L40 0L0 40L-40 0Z" stroke="#ffffff" fill="none" stroke-width="2"></path></g><g transform="translate(111 448)"><path d="M0 -22L22 0L0 22L-22 0Z" stroke="#ffffff" fill="none" stroke-width="2"></path></g><g transform="translate(353 13)"><path d="M0 -13L13 0L0 13L-13 0Z" stroke="#ffffff" fill="none" stroke-width="2"></path></g><g transform="translate(3 28)"><path d="M0 -17L17 0L0 17L-17 0Z" stroke="#ffffff" fill="none" stroke-width="2"></path></g><g transform="translate(465 96)"><path d="M0 -28L28 0L0 28L-28 0Z" stroke="#ffffff" fill="none" stroke-width="2"></path></g><g transform="translate(409 213)"><path d="M0 -16L16 0L0 16L-16 0Z" stroke="#ffffff" fill="none" stroke-width="2"></path></g><g transform="translate(810 279)"><path d="M0 -41L41 0L0 41L-41 0Z" stroke="#ffffff" fill="none" stroke-width="2"></path></g><g transform="translate(180 5)"><path d="M0 -37L37 0L0 37L-37 0Z" stroke="#ffffff" fill="none" stroke-width="2"></path></g></g></svg>